<svg xmlns="http://www.w3.org/2000/svg" xmlns:xlink="http://www.w3.org/1999/xlink" aria-hidden="true" role="img" class="iconify iconify--logos" width="31.88" height="32" preserveAspectRatio="xMidYMid meet" viewBox="0 0 256 257"><defs><linearGradient id="IconifyId1813088fe11b05f20" x1="-9.135%" x2="112.505%" y1="9.135%" y2="112.505%"><stop offset="0" stop-color="#41D1FF"></stop><stop offset="1" stop-color="#BD34FE"></stop></linearGradient><linearGradient id="IconifyId1813088fe11b05f21" x1="33.06%" x2="66.94%" y1="33.06%" y2="66.94%"><stop offset="0" stop-color="#FFEA83"></stop><stop offset="0.083" stop-color="#FFDD35"></stop><stop offset="1" stop-color="#FFA800"></stop></linearGradient></defs><path fill="url(#IconifyId1813088fe11b05f20)" d="M255.153 37.938L134.897 252.69c-2.483 4.424-8.85 4.424-11.333 0L2.308 37.938C-.214 33.442 3.032 28 8.16 28h240.28c5.128 0 8.374 3.442 5.854 8.938z"></path><path fill="url(#IconifyId1813088fe11b05f21)" d="M150.31 20.293l-5.667 26.56H190.9l-10.513 19.012l58.205 10.328l-60.616 142.147c-2.483 4.424-8.85 4.424-11.333 0L12.308 37.938C9.786 33.442 13.032 28 18.16 28h132.15z"></path></svg>